<svg xmlns="http://www.w3.org/2000/svg" viewBox="0 0 48.17 54.3">
  <defs>
    <style>
      .a {
        fill: none;
        stroke: #fff;
        stroke-miterlimit: 10;
      }

      .b {
        fill: #fff;
      }
    </style>
  </defs>
  <title>org-structure</title>
  <g>
    <line class="a" x1="6.33" y1="51.09" x2="41.5" y2="51.09"/>
    <line class="a" x1="24" y1="3.72" x2="24" y2="50.94"/>
    <path class="b" d="M29.76,15.61A3.66,3.66,0,0,1,25.91,19H22a3.66,3.66,0,0,1-3.84-3.42A3.66,3.66,0,0,1,22,12.18h3.93A3.67,3.67,0,0,1,29.76,15.61Z"/>
    <path class="b" d="M29.76,3.42a3.67,3.67,0,0,1-3.85,3.43H22a3.66,3.66,0,0,1-3.84-3.43A3.66,3.66,0,0,1,22,0h3.93A3.66,3.66,0,0,1,29.76,3.42Z"/>
    <path class="b" d="M11.62,15.61A3.66,3.66,0,0,1,7.77,19H3.85A3.66,3.66,0,0,1,0,15.61a3.67,3.67,0,0,1,3.85-3.43H7.77A3.67,3.67,0,0,1,11.62,15.61Z"/>
    <path class="b" d="M29.76,27.4a3.66,3.66,0,0,1-3.85,3.42H22a3.66,3.66,0,0,1-3.84-3.42A3.66,3.66,0,0,1,22,24h3.93A3.67,3.67,0,0,1,29.76,27.4Z"/>
    <path class="b" d="M48.17,27.4a3.66,3.66,0,0,1-3.84,3.42H40.4a3.66,3.66,0,0,1-3.84-3.42A3.66,3.66,0,0,1,40.4,24h3.93A3.66,3.66,0,0,1,48.17,27.4Z"/>
    <path class="b" d="M29.76,39.47a3.66,3.66,0,0,1-3.85,3.42H22a3.66,3.66,0,0,1-3.84-3.42A3.66,3.66,0,0,1,22,36h3.93A3.67,3.67,0,0,1,29.76,39.47Z"/>
    <path class="b" d="M11.93,50.88A3.66,3.66,0,0,1,8.08,54.3H4.16a3.44,3.44,0,1,1,0-6.84H8.08A3.66,3.66,0,0,1,11.93,50.88Z"/>
    <path class="b" d="M29.48,50.88a3.66,3.66,0,0,1-3.85,3.42H21.71a3.44,3.44,0,1,1,0-6.84h3.92A3.66,3.66,0,0,1,29.48,50.88Z"/>
    <path class="b" d="M47,50.88a3.66,3.66,0,0,1-3.85,3.42H39.26a3.44,3.44,0,1,1,0-6.84h3.92A3.66,3.66,0,0,1,47,50.88Z"/>
    <path class="a" d="M5.43,19v17A4.08,4.08,0,0,0,9.5,40h6.41"/>
    <path class="a" d="M42.26,23.94V7.66a4.1,4.1,0,0,0-4.08-4.08H31.6"/>
    <path class="b" d="M11.62,27.4a3.66,3.66,0,0,1-3.85,3.42H3.85A3.66,3.66,0,0,1,0,27.4,3.67,3.67,0,0,1,3.85,24H7.77A3.67,3.67,0,0,1,11.62,27.4Z"/>
    <line class="a" x1="29.93" y1="27.4" x2="36.3" y2="27.4"/>
    <line class="a" x1="11.52" y1="15.63" x2="17.89" y2="15.63"/>
  </g>
</svg>
