<svg xmlns="http://www.w3.org/2000/svg" viewBox="0 0 576.66 197.61">
  <defs>
    <style>
      .a {
        fill: #fff;
      }
    </style>
  </defs>
  <title>anu-white</title>
  <g>
    <path class="a" d="M5.92,175.73c0-1.2-.09-2.42,0-3.61.31-3.13-1-5.85-1.93-8.71-.84-2.55-2.51-4.64-3.51-7.08-.72-1.74-.72-2.15.42-3.36A54.81,54.81,0,0,1,18.47,140.7c1.1-.49,2.27-.78,3.37-1.37,1.82-1,1.94-1,1.13-2.5-1.21-2.35-2.59-4.61-3.67-7a108.94,108.94,0,0,1-4.59-11.21c-1-3.16-1.63-6.5-.29-9.86A16.9,16.9,0,0,1,18.68,103c4.21-3.73,9.28-6,14-8.83,1.68-1,3.53-.69,5.19-1.42.54-.24,6.08,1.54,6.42,1.81,4.86,3.79,9.29,7.91,11.82,13.73,1.47,3.38,1.27,6.53-1.1,9.24a13.79,13.79,0,0,1-4.73,3.22,10.39,10.39,0,0,0-1.62.85c-1.45,1-1.59,1.73-.81,3.38a138.27,138.27,0,0,1,6.6,15.63,3.44,3.44,0,0,0,2.3,2c3.85,1.53,7.75,2.94,11.6,4.45,2.15.85,4.15,2.07,6.35,2.89,4.16,1.55,8.2,3.42,12.28,5.17,2.57,1.12,5.16,2.35,7.73,3.51a46.15,46.15,0,0,0,6,2.27c2.5.73,4.83,2,7.39,2.72,2.94.8,5.9,1.56,8.82,2.45,3.29,1,6.63.73,9.9.52a29.13,29.13,0,0,0,8-2c1.92-.7,3.91-1.05,5.81-1.81s3.75-1.51,5.69-2.13a36.28,36.28,0,0,0,4.18-1.74c3.84-1.8,7.76-3.46,11.69-5,2.53-1,4.85-2.47,7.53-3.23s4.93-2.32,7.45-3.36c4.11-1.68,8.35-3.07,12.4-4.91,1.57.36,1.86-1.15,1.9-1.86.13-2.08,1.67-3.47,2.21-5.37a22.66,22.66,0,0,1,2.19-5.31c1.12-1.92,1.4-4.24,2.79-6.06.29-.38.08-.75-.23-1.12-1-1.13-2.38-1.69-3.55-2.55a20.5,20.5,0,0,0-2.88-1.75,4.19,4.19,0,0,1-2.43-3.61,15.73,15.73,0,0,1,2.94-11.69A27.75,27.75,0,0,1,202.81,94c1.72-.9,3.7-.42,5.3-1.47,1.45,1.17,3.41.44,5,1.44,2.31,1.48,4.8,2.66,7.2,4a57,57,0,0,1,7,4.5,12.18,12.18,0,0,1,5,9.66c.11,4.69-1.6,8.87-3.45,13-1.94,4.34-3.91,8.67-6.24,12.83-.29.52-.33.93.45,1.16a47.67,47.67,0,0,1,14.91,7.46,40.53,40.53,0,0,1,7.22,6.4c1.07,1.25,1.18,1.6.35,3.36-1,2.11-2,4.21-3,6.3a20.31,20.31,0,0,0-2.38,9.18c0,3.06-.07,6.12,0,9.18.11,3.83-1.88,6.16-5,8.08-4.7,2.9-9.8,3.5-15.09,3.11a31,31,0,0,1-5.31-1.38c-1.81-.48-2.93-2-4.25-3.11a115.4,115.4,0,0,0-10.83-8c-2.57-1.65-5.32-3-7.87-4.71-.88-.58-1.15-.21-1.87.14-3.82,1.85-7.65,3.69-11.59,5.27-4.87,2-9.65,4.13-14.54,6.07-5.47,2.17-11,4.08-16.57,5.9-2.24.73-4.55,1.1-6.78,1.84-2.73.91-5.71.73-8.37,2a.85.85,0,0,1-.32,0c-3.87-.11-7.71,1.36-11.52.58-3.44-.71-7.09-.24-10.35-1.9-3,0-5.8-1.34-8.71-1.88-4.15-.76-8-2.48-11.91-3.75-3.75-1.2-7.35-2.85-11-4.35-3.46-1.43-6.88-2.94-10.32-4.4a115,115,0,0,1-11.54-5.35,2.33,2.33,0,0,0-2.75.08c-4,2.91-8.61,4.87-12.4,8.14-2,1.7-4.18,3.15-6.17,4.89A17.26,17.26,0,0,1,28,191.69a21.14,21.14,0,0,1-8.27.46c-4.76-.63-9.27-2.23-12.51-6.15a6.08,6.08,0,0,1-1.31-4C5.94,179.88,5.92,177.81,5.92,175.73Zm26.69-35.25c-2.08-.77-4.51.72-7.07.63-.25,0-.49.4-.78.47-4.71,1.15-8.86,3.47-12.91,6-2.87,1.81-5.24,4.2-7.9,6.26a1.41,1.41,0,0,0-.35,2.22,8.75,8.75,0,0,1,.85,1.63c1,2,1.91,4,2.78,6.06,1.48,3.51,1.23,7.34,2,11,.06.3,0,.79.19.88.5.26.66-.34.89-.59a33.49,33.49,0,0,1,7-5.17c2.39-1.49,5.16-1.81,7.64-2.94,2.71-1.24,5.78-.46,8.54-1.56.75-.3,1.75.08,2.59-.08s1.46.86,2.36.7c2.61-.47,4.95.84,7.23,1.57a82.76,82.76,0,0,1,10.12,4c4,1.91,7.94,4,12.12,5.58,1.13.42,2,1.4,3.19,1.78,3.75,1.26,7.29,3,10.95,4.44,3.11,1.22,6.18,2.54,9.36,3.52,4.46,1.38,8.81,3.08,13.35,4.24a57.75,57.75,0,0,0,11.48,2.22c6.58.31,13.23.63,19.81-1.07,2.86-.73,5.8-1.29,8.66-2.09a93.5,93.5,0,0,0,10.39-3.41c3.53-1.46,7.17-2.72,10.68-4.3,2.73-1.23,5.59-2.34,8.41-3.45s5.55-2.43,8.3-3.71c3.39-1.57,6.72-3.3,10.16-4.76a102,102,0,0,1,10.51-3.9,39.61,39.61,0,0,1,8.29-1.42c1.35-.1,2.32.92,3.67.75a10.94,10.94,0,0,1,4,.51c5.21,1.32,8,2.26,11.85,4.69a23.15,23.15,0,0,1,5.14,4.22,3,3,0,0,0,.46.28c.08-.19.26-.41.22-.56-.47-1.65.84-3,.7-4.65-.21-2.54.72-4.84,1.57-7.2a57.32,57.32,0,0,1,3.16-6.89,2,2,0,0,0-.31-2.76,36.07,36.07,0,0,0-5.37-4.54,43.62,43.62,0,0,0-11.7-6.52,33.23,33.23,0,0,0-10.24-2.25,43.32,43.32,0,0,0-12.23,1.4c-2.16.56-4.34,1.06-6.47,1.76a106.64,106.64,0,0,0-15.86,6.06c-3.39.46-6.26,2.35-9.33,3.6a55.46,55.46,0,0,0-9.11,4.19,9,9,0,0,1-1.94.83,53,53,0,0,0-8.47,3.27c-3.63,1.85-7.51,3-11.26,4.5-2.73,1.11-5.73,1.37-8.42,2.63-1.34-.46-2.38.8-3.66.65s-2.45.5-3.67.62c-2.42.23-4.76-.94-7.21-.73-4.56-1.71-9.36-2.61-13.94-4.34-4.83-1.81-9.6-3.78-14.37-5.7-5.15-2.07-10.14-4.55-15.28-6.66-1.78-.72-3.53-1.51-5.33-2.19s-3.65-1.31-5.36-2.08A94.89,94.89,0,0,0,47,142.59C42.49,141.44,37.92,140.1,32.61,140.48Zm180.94-2.68c1.75,0,3.49,0,5.24,0,.64,0,.75-.24,1-.82,2.58-5.14,5.31-10.22,7.48-15.56a64.89,64.89,0,0,0,2.22-6.27,11.93,11.93,0,0,0,.06-4.22,4.55,4.55,0,0,0-3.24-3.3,9.45,9.45,0,0,0-7.16,1.62,28.37,28.37,0,0,0-4,3.17c-2.46,2.68-2.54,2.61.63,4.38,2.62,1.47,2.51,1.47,2.64,4.24s-1.52,4.51-3.07,6.25a6.2,6.2,0,0,1-7.3,1.12,27.08,27.08,0,0,1-5.47-3.42c-.84-.77-1.54-.41-1.9.77-.06.2,0,.46-.09.62-2,3.29-2.9,7.09-4.63,10.51a13.84,13.84,0,0,0-1.17,3.44c-.07.33-.13.75.63.48,2.41-.86,4.83-1.8,7.47-1.71,1.16-1.24,2.87-.08,3.93-.73,1.49-.92,2.93-.35,4.37-.56A15.75,15.75,0,0,1,213.55,137.8Zm-192-30.17a4.18,4.18,0,0,0-4.94,2.84,7.8,7.8,0,0,0,0,4.78,116.32,116.32,0,0,0,4.48,11.55c1.49,3.32,3.27,6.5,4.93,9.74.64,1.24.65,1.25,1.71,1.26,2.84,0,5.67,0,8.51,0a27.13,27.13,0,0,1,6.2.9c2.76.57,5.7.72,8.23,2.19.57.33.53-.13.54-.33a4.22,4.22,0,0,0-.3-1.5c-.61-1.83-1.57-3.5-2.29-5.27-1.07-2.61-2-5.27-3.09-7.89-.62-1.52-1.06-1.59-2.45-.6A44.49,44.49,0,0,1,37,128.81a3.74,3.74,0,0,1-2.93.13,8.58,8.58,0,0,1-5.27-3.9c-1.45-2.08-1.12-4.21-1.21-6.39,1.09-.72,2.17-1.44,3.26-2.14.25-.16.57-.21.83-.36,1.38-.78,1.48-1.28.42-2.37a19.79,19.79,0,0,0-2.57-2.53C27.1,109.54,24.9,107.28,21.54,107.63Zm170.69,3.9c0,.7,0,1.14,0,1.58-.16,1.75.8,2.78,2.2,3.62,3.41,2,6.8,4.13,10.17,6.24.43.27.4.32.81-.14.93-1.06.42-2.39,1-3.54a30.07,30.07,0,0,1,11.75-12.35,18,18,0,0,1,3.79-1.92c.78-.24,2.12.41,2.33-.41.33-1.24-1.61-1-2-2-.05-.13-.37-.13-.54-.24-2.75-1.73-5.64-3.24-8.41-4.93a10.33,10.33,0,0,0-9.41-.65,22.51,22.51,0,0,0-9.46,8.43C193.23,107.09,191.61,109.16,192.23,111.53ZM38,95.81a15.64,15.64,0,0,0-3.12.54c-1.53.38-2.41,1.57-3.74,2.09-3.36,1.3-6.06,3.74-9.24,5.36-.14.07-.19.35-.24.55a.47.47,0,0,0,.51.63,6.08,6.08,0,0,1,4.5,1c1.52,1.08,3.42,1.56,4.66,3.11s3,2.37,4.21,4.07c2,2.71,4.27,5.08,4.55,8.64,0,.34.58.54.62,1.06.06.79.38.39.75.12,3.06-2.25,6.55-3.81,9.63-6.07a10.78,10.78,0,0,0,2.35-2.09c.5-.68,1.37-1.58,1-2.49-.78-1.75-1-3.63-2.11-5.38A37.72,37.72,0,0,0,45,98.57C43,96.94,40.75,95.51,38,95.81Zm171.25,81.25c.11,1.87-.18,3.32.64,4.75s1.55,3.36,2.9,4.31a17.7,17.7,0,0,0,10.33,3.55,23,23,0,0,0,9.3-2.13c1.86-.83,3.9-2.09,4.72-4.4a1.44,1.44,0,0,0,.06-1.38,19,19,0,0,0-8.51-8.54c-3.51-1.91-7-3.94-11.16-3.93-2-1.34-4.2-.34-6.29-.66a.5.5,0,0,0-.64.52C210.6,172,208.71,174.54,209.26,177.06ZM36.84,178c-.21-1.59.07-2.77-.27-3.95-.43-1.47-1.21-2.86-1.12-4.45,0-.71-.25-.84-.92-.94-2.93-.45-5.69.92-8.59.69-.07,0-.14.18-.24.21a70.65,70.65,0,0,0-8.34,3.64c-2.93,1.54-5,3.94-7.3,6.1,0,1.22-1.36,1.84-1,3.42.57,2.88,2.77,4.05,4.84,4.88,3.24,1.29,6.64,2.4,10.3,2.14,1.09-.08,2-.62,3-.7C31.91,188.6,37.76,182.32,36.84,178Zm2.54-1.55c0,1.27,0,2.25,0,3.23,0,.34.05.69.38.79a1,1,0,0,0,.88-.21,56.1,56.1,0,0,1,10.12-6.33.65.65,0,0,0,.44-.73c0-.38-.25-.47-.59-.6a48,48,0,0,1-5.07-2c-2.14-1-4.57-.95-6.72-1.92-.53-.23-1,.4-.66,1A13.44,13.44,0,0,1,39.38,176.4ZM208,169.25c0-.64-.64-.8-.85-.58-1.06,1.09-2.73.21-3.74,1.28-2.89,0-5.14,1.81-7.75,2.6-.45.13-.81.16-.78.73,0,.39.27.46.57.62a70.79,70.79,0,0,1,9.86,6.17c.37.28.69.5,1.12.29s.25-.56.26-.87a26,26,0,0,0,0-4.24c-.26-1.58.93-2.86.66-4.31C207.11,170.08,208.12,170,208,169.25Zm.66-46.18c.09.92-.38,2,.7,2.64a2.93,2.93,0,0,0,2.76.2,8.72,8.72,0,0,0,3.73-4.52,1.4,1.4,0,0,0-.41-1.46c-.41-.43-1-.34-1.36-.67-1-.89-1.93-2.19-3.36-1.47-1.19.6-1.23,2.28-2,3.36C208.37,121.58,208.63,122.42,208.63,123.07Zm-171.22,0a4,4,0,0,0,0-1c-.42-1.69-.81-3.65-2.32-4.48-1-.54-2.2.77-3.1,1.65-.19.18-.62.09-.86.25-1.06.7-1,1.24-.5,2.69.42,1.18,1.43,1.79,2.08,2.73.92,1.33,2.23,1.11,3.48,1a1.39,1.39,0,0,0,1.22-1.27A14.58,14.58,0,0,0,37.41,123.07Z"/>
    <path class="a" d="M189.6,5.4c1.17,8,.36,16,.77,24,.11,2.07.54,4.18.54,6.3,0,1.2.21,2.45-.46,3.58,1,1,.33,2.28.44,3.42.12,1.3,0,2.62,0,3.93V61.71a33.24,33.24,0,0,0,0,3.6c.28,2.81-.54,5.5-.65,8.26s.32,5.74-.14,8.51c-.39,2.33-.21,4.68-.62,7-.59,3.2-.68,6.46-1.3,9.62a75.34,75.34,0,0,1-3.57,13.59c-1.08,2.73-2.08,5.47-3.41,8.11a45.49,45.49,0,0,1-3.86,6.24,33.68,33.68,0,0,1-4.06,4.92,91.57,91.57,0,0,1-13.18,10.21,179.83,179.83,0,0,1-22.08,12.39c-3.56,1.66-7.27,3.35-11.39,3.37-1.88,1.17-4.05.9-5.94.55a56.13,56.13,0,0,1-7.93-2.16c-5.13-1.75-9.71-4.58-14.5-7a150.21,150.21,0,0,1-17.5-10.77c-4-2.73-7.33-6.39-10.62-10a26.64,26.64,0,0,1-3.79-5.62c-1.05-2-1.92-4-2.88-6C62,113.4,61.38,110,60,106.86a11.34,11.34,0,0,1-.79-3.25c-.37-3.33-1.12-6.6-1.57-9.92-.3-2.29,0-4.7-.72-6.87-.8-2.36,0-4.73-.46-7-1.24-6.22-.45-12.5-.6-18.75s0-12.46,0-18.69c0-3.28.1-6.57,0-9.84-.36-9.66,1.17-19.27.62-28.92-.07-1.17,1-1.88.73-3C57,.26,57.32,0,57.73,0c1.79.22,3.65-.46,5.39.44A1.67,1.67,0,0,0,64,.69c4.32-.47,8.53.83,12.85.72,4.61-.12,9.19,1,13.83.6,4.56,1.37,9.28,0,13.81.75s9.24.45,13.85.54,9.18,0,13.77,0c7.14,0,14.23-1.14,21.38-.66C157,1.51,160.61,2.58,164,1.9s6.88-.06,10.22-.64c2.67-.46,5.37-.15,7.92-.68a28.67,28.67,0,0,1,5.66-.52,1.57,1.57,0,0,1,1.76,1.74C189.64,3,189.6,4.2,189.6,5.4ZM187,9.59c0-2,0-3.51,0-5s-.07-1.38-2-1.24a74.7,74.7,0,0,0-8.27.54c-3.21.58-6.57.14-9.89.71s-6.56,0-9.9.61a35,35,0,0,1-9.15.07C144.6,5,141.6,6,138.5,6H124.74c-4.7,0-9.4-.1-14.1,0-4.52.12-9-1-13.5-.76-3.39.14-6.81.46-10.24-.48-1.93-.53-4.14-.21-6.2-.06s-3.87-1-6-.74c-4.51.54-9-1-13.49-.7-1.08.06-1.88-.38-1.5,1.1S59,6.72,59,8c.05,3.61-.18,7.23.07,10.81s-.8,7.22-.74,10.88c.11,7.87-.09,15.74.07,23.6s-.74,15.59.62,23.34c-.5,4.64.89,9.19.66,13.82a2.3,2.3,0,0,0,0,1c1.32,3,1.23,6.25,1.84,9.37s1.63,6.34,2.49,9.49a53.12,53.12,0,0,0,4.6,10.55c3.27,6.15,8.23,10.88,13.71,14.84a174.5,174.5,0,0,0,19.59,12c3.93,2.11,8,3.82,12.12,5.57,4.29,1.84,8.71,1.94,13.09,1.5,3.38-.33,6.65-1.8,9.72-3.32a187.72,187.72,0,0,0,21.82-12.27,92.59,92.59,0,0,0,12.18-9.29A39.68,39.68,0,0,0,175.6,124a47.28,47.28,0,0,0,5.5-10.51,41,41,0,0,0,1.93-5.76c.39-2.12,1.69-4,1.34-6.33,1.38-.9.09-2.5.92-3.55s-.12-2.48.45-3.41a5.13,5.13,0,0,0,.52-3.69c-.26-1.41.8-2.36.76-3.68a39.85,39.85,0,0,1,.5-7.61,43.61,43.61,0,0,0,.07-9.49c-.19-3.13.6-6.15.68-9.23.09-3.28.07-6.56,0-9.84a71.81,71.81,0,0,0-.52-9.58c-.55-3.52-.12-7.19-.12-10.8s-.19-7.22.05-10.81S186.44,12.7,187,9.59Z"/>
    <path class="a" d="M282.76,95.47c0-8.19,0-16.39,0-24.58,0-.91.09-1.41,1.19-1.34a25.25,25.25,0,0,0,4.26,0,2.87,2.87,0,0,1,3.06,1.84c1.72,3.65,4.37,6.7,6.42,10.12,3.21,5.37,7,10.37,10.06,15.83a71.46,71.46,0,0,0,5.73,8.43c1,1.24,1.12,3,2.5,3.9.23.15.51.49.68.43.38-.12.22-.55.22-.85q0-18.36,0-36.71c0-3,0-3,2.8-3,1.19,0,2.7-.35,3.46.24s.28,2.23.28,3.4q0,23.28,0,46.54c0,1.61,0,1.62-1.5,1.64a13.1,13.1,0,0,0-2.94,0,4,4,0,0,1-4.6-2.29c-3.55-6.6-8.38-12.38-12-18.93-1.59-2.86-3.7-5.44-5.45-8.24-2.23-3.57-4.63-7-6.93-10.57-.14-.22,0-.62-.45-.54-.11,0-.21.35-.21.54,0,.87,0,1.75,0,2.62q0,17.86,0,35.72c0,1.62,0,1.65-1.49,1.64s-3.24-.07-4.86-.11a18.7,18.7,0,0,1-.19-4.84C282.74,109.45,282.76,102.46,282.76,95.47Z"/>
    <path class="a" d="M323.43,150.51c0,5.25-.07,10.49,0,15.74a17.37,17.37,0,0,1-2.28,8.9,16.11,16.11,0,0,1-10.69,7.95c-4.05,1-8.16.82-12.18.51a17.1,17.1,0,0,1-10.52-4.5,14.21,14.21,0,0,1-4.37-7.34c-.28-1.32-.49-2.66-.74-4-1.06-5.48-.42-11-.54-16.46s0-10.93,0-16.39c0-.77-.05-1.54,0-2.3a1.38,1.38,0,0,1,1.45-1.39c1.85,0,3.69.05,5.53.09a16.94,16.94,0,0,1,.21,4.82c0,8.09,0,16.17,0,24.26,0,1.53.08,3.07,0,4.59s.83,2.54.78,4a5.62,5.62,0,0,0,1.36,3.31c2.7,3.28,6,5.54,10.49,5.49,2.33,0,4.65.19,6.95-.62,4-1.42,6.81-5.47,7.43-9.69.8-5.5.46-11,.55-16.46s0-10.93,0-16.4c0-.87,0-1.74,0-2.62,0-.51.16-.79.73-.78,1.85,0,3.7,0,5.56,0,.64,1.68.23,3.42.25,5.13C323.47,141.11,323.43,145.81,323.43,150.51Z"/>
    <path class="a" d="M323.35,59.74a4.7,4.7,0,0,1-.65,0c-1.05-.11-2.52.52-3.06-.34a8.48,8.48,0,0,1-1.45-3c-.61-3.53-2.66-6.57-3.35-10.09-.39-2-1.27-2.33-3.49-2.33H294c-.79,0-1.11.14-1.55,1a82.44,82.44,0,0,0-3.68,9.62c-.47,1.32-1.53,2.43-1.49,4,0,.58-.74,1.2-1.69,1.13a33.48,33.48,0,0,0-4.25,0c-1.07.07-1.31-.38-1.21-1.31a6,6,0,0,1,.4-1.48c1.42-3.67,2.91-7.31,4.23-11,.88-2.47,2.08-4.82,3-7.28,1.59-4.36,3.52-8.59,4.91-13,.82-2.58,2.18-5,3.18-7.52s1.82-4.92,2.67-7.41c.72-2.1.69-2.12,2.71-2.13h4.58c1.78,0,2,.17,2.56,1.95,1.22,3.75,2.67,7.4,4.15,11.05,1.24,3.09,2.6,6.14,3.69,9.28,1,2.77,2.17,5.43,3.23,8.16,1.39,3.58,2.6,7.22,4,10.77,1.23,3,2.41,6,3.41,9.08.15.48.82.84-.23.87S324.45,59.74,323.35,59.74ZM302.84,38.09h6.54c2.32,0,2.54-.12,1.52-2.23s-1.52-4.38-2.39-6.54c-1.76-4.39-3.2-8.92-4.75-13.4-.09-.28-.07-.75-.37-.71s-.18.71-.32.78c-1,.58-.63,1.73-1,2.56-1.36,3.14-2.4,6.42-3.58,9.63-1.12,3-2.23,6.06-3.45,9-.23.56-.7.86.27.86C297.83,38.1,300.33,38.09,302.84,38.09Z"/>
    <path class="a" d="M360.82,104c0,3.6.07,7.21,0,10.82,0,1.28.41,1.51,1.49,1.38a10,10,0,0,1,1.64,0c1.58,0,.27.63.21,1a11.4,11.4,0,0,1-.06,2c-.23.69.88.87.4,1.59a3.75,3.75,0,0,1-2.11,1.24c-2.3.8-5.67-.54-7.09-2.54a2.4,2.4,0,0,1-.34-.84c-.14-.58.34-1.38-.39-1.69-.18-.08-.69.78-1.14,1.06s-1,.23-1.35.71c-1,1.46-2.69,1.83-4.27,2.33-5.08,1.62-8.85,1.48-13.53-.88-3.14-1.59-4.39-4.26-4.89-7.45-.44-2.81.75-5.26,1.92-7.72a3.48,3.48,0,0,1,1.23-1.43,17.42,17.42,0,0,1,6.91-3c1.56-.21,3-1.07,4.64-.81s3-.76,4.64-.72a8.84,8.84,0,0,0,4-1.33c1.6-.86,2.08-3.2,1.28-5.1a4.5,4.5,0,0,0-1.39-2c-3.95-2.93-11.14-2.67-14.28,1.26a1.76,1.76,0,0,0-.46.8c-.24,1.09-.3,2.64-1,3.09-.86.54-2.32.14-3.52.15-.65,0-1.31,0-2,0-.4,0-.78-.36-.67-.47,1.2-1.21.33-2.84,1-4.21,1.87-4,4.54-6,8.75-7.2,4-1.1,7.93-.26,11.87-.6,2,1,4.51,1.15,5.93,3a11.43,11.43,0,0,1,2.62,6.77C360.85,96.75,360.82,100.36,360.82,104Zm-6.56,2.15c0-1,0-2,0-2.94,0-.77-.55-1.08-1-.74-2.32,1.76-5.13,1.39-7.72,1.85a32.71,32.71,0,0,0-6.7,1.95c-2.16.91-2.5,2.85-2.9,4.64-.35,1.56.76,3,1.86,3.89a5.62,5.62,0,0,0,4.3,1.41c.95-.14,1.95,0,2.93,0a10.19,10.19,0,0,0,8.57-5.4,3.21,3.21,0,0,0,.66-2A25,25,0,0,1,354.26,106.12Z"/>
    <path class="a" d="M475,41.65c0,3.5,0,7,0,10.49,0,1.91.32,2.22,2.15,2.35s1.77.13,1.78,2v.66c0,2.07-.91,3-3,3.22a9.35,9.35,0,0,0-1.3,0c-2.46.59-3.77-1.07-5.18-2.57a1.58,1.58,0,0,1-.39-1.16c0-.51.28-1.24-.32-1.44-.24-.07-.76.66-1.13,1-1.88,1.89-4.26,2.71-6.74,3.53s-4.86.57-7.29.55a10.73,10.73,0,0,1-9.24-6.65c0-.1-.2-.18-.19-.25.35-2.63-.4-5.26.55-8A8.52,8.52,0,0,1,450,40.14a26.16,26.16,0,0,1,9.31-2.06c1.15,0,2.09-1.1,3.34-.65s2-.51,3-.71c1.81-.36,2.45-1.66,2.78-3.41.51-2.64-1.18-4-2.74-5.45-.81-.77-2.23.35-2.89-.92a19.28,19.28,0,0,0-7.73,1.1,4.91,4.91,0,0,0-3,3.65c-.18.63-.63,1.11-.69,1.68-.08.8-.5.81-1.08.79s-1.31,0-2,0c-.95-.07-2.36.45-2.73-.32a4.72,4.72,0,0,1,0-3.45c1.51-4.26,4.1-6.6,8.62-8.06a11.61,11.61,0,0,1,4-.65c2.18.07,4.37-.05,6.55,0a13.48,13.48,0,0,1,6.63,2.13,7.9,7.9,0,0,1,3.51,6.67C475.07,34.22,475,37.94,475,41.65Zm-6.56,3c0-1.09,0-2.18,0-3.27,0-.57-.1-.6-.7-.34a20.51,20.51,0,0,1-6.83,1.56,40.89,40.89,0,0,0-6.63,1.4,5.44,5.44,0,0,0-3.43,3.13,6.81,6.81,0,0,0,0,4.17,4.16,4.16,0,0,0,1.86,2.12,4.5,4.5,0,0,0,3.14,1.1,20.58,20.58,0,0,1,2.94,0,10.52,10.52,0,0,0,6.67-2c1.88-1.47,3.41-3.21,3-5.9A14.09,14.09,0,0,1,468.4,44.65Z"/>
    <path class="a" d="M507.11,102.76c0,3.71,0,7.43,0,11.14,0,1.84.35,2.14,2.26,2.25,1.65.1,1.65.1,1.67,1.8,0,3.28-.76,4.08-4.06,4.11s-4.88-1.12-5.75-4.48c-.22-.87-.42-.85-.86-.25a10.66,10.66,0,0,1-5.95,3.8c-3.79,1-7.76,1.8-11.68-.09-1.83-.88-3.74-1.31-4.81-3.43-.65-1.29-1.69-2.31-1.67-3.92,0-2.84-.42-5.8,1.36-8.28a10.18,10.18,0,0,1,6-4.29c3.75-.78,7.43-1.89,11.3-2.07,1.1,0,2.18-.54,3.32-.7,1.71-.25,2.27-1.32,2.29-3.19,0-.55,0-1.09,0-1.64-.07-2.45-1.28-3.71-3.63-4.29a16.48,16.48,0,0,0-8.34,0,5.63,5.63,0,0,0-3.39,2,4.25,4.25,0,0,0-1.06,2.83c.09,1.19-.55,1.79-1.76,1.75-.77,0-1.54.06-2.3,0s-2,.48-2.41-.35a3.15,3.15,0,0,1,0-2.55c.94-1.8,1.2-3.91,2.7-5.45a12.07,12.07,0,0,1,5.82-3.36c.73-.18,1.26-.73,2-.74h2.62c1.64,0,3.29.11,4.92,0a12.61,12.61,0,0,1,7.38,2,7.56,7.56,0,0,1,4,6.62C507.19,95.55,507.11,99.15,507.11,102.76Zm-6.56,3.74a12.62,12.62,0,0,0,0-1.63c-.11-.83.35-1.73-.3-2.48-.42,1.11-1.52.61-2.25.84a22.51,22.51,0,0,1-5.43,1.06,23.46,23.46,0,0,0-5.39,1.17,6.09,6.09,0,0,0-3.86,3.27c-.86,1.48-.19,3-.46,4.39,1.27,1.39,2.45,2.95,4.57,3,1.74.06,3.48,0,5.22,0a6.42,6.42,0,0,0,3.19-1c3.26-1.77,5.48-4.28,4.73-8.39A1.71,1.71,0,0,1,500.55,106.5Z"/>
    <path class="a" d="M537.94,40.5c0,3,.06,5.9,0,8.85a17.42,17.42,0,0,0,.64,4.32c.16.72.42.87,1.05.83.43,0,.87,0,1.31,0,.66-.06,1,.13,1,.87,0,1,0,2,0,2.95,0,1.19,0,1.19-1.26,1.71s-4,.23-5.52-.09c-2.16-.47-2.25-2.35-2.88-3.73-.47-1-.52-1.12-1.25-.31-2.9,3.24-6.75,4.2-10.89,4.54a22.73,22.73,0,0,1-6.28-.71c-2.83-.54-6.43-4.42-6.64-7.32a15.46,15.46,0,0,1,.59-6.94A7,7,0,0,1,511,41.4c2.46-1.19,4.83-2.5,7.74-2.75,2.65-.22,5.31-.87,7.95-1.35,1.77-.32,4.11-.48,5-3a4.19,4.19,0,0,0,0-2.94c-.86-2.81-2.9-3.61-5.46-4.12a10.53,10.53,0,0,0-4.64,0c-2,.49-4.11.9-5.39,2.8-.56.85-1.34,1.68-1.15,2.79.25,1.4-.53,1.39-1.51,1.34s-2,0-2.95,0c-2.31,0-2.55-.12-2.06-2.31.38-1.76.78-3.63,2.27-4.95s2.54-2.93,4.37-3.69a15.07,15.07,0,0,1,5.93-1.51,42.31,42.31,0,0,0,4.91,0c2.6-.28,5,.55,7.31,1.37,1.69.59,2.8,2.12,3.73,3.47A6.23,6.23,0,0,1,538,30C537.88,33.51,537.94,37,537.94,40.5ZM521,54.55v-.06c.22,0,.43,0,.65,0a9.25,9.25,0,0,0,6.2-1.52,9.38,9.38,0,0,0,3.83-5.55c.57-2.17.13-4.25.31-6.36,0-.37-.66-.5-1-.22-2.33,1.67-5.13,1.37-7.73,1.79-1.77.29-5.44,1.1-7,2A5.12,5.12,0,0,0,513.67,50a4.89,4.89,0,0,0,3.49,4.31A13.88,13.88,0,0,0,521,54.55Z"/>
    <path class="a" d="M431,166c-4.26,0-8.51,0-12.77,0-.67,0-.94.17-1,.89-.09,2,.08,2.88,1.33,5.35a10.19,10.19,0,0,0,8.44,5.58c.87,0,1.76-.08,2.62,0,3.34.35,6.8-2.12,7.94-5.69.34-1.07.84-1.66,2-1.54.43,0,.87,0,1.3,0,1.06.09,2.5-.51,3.1.29.78,1.07-.3,2.4-.73,3.46a14.17,14.17,0,0,1-8.86,8.24c-3,.81-5.88,1.81-9.14.59-1.45-.55-3.22-.51-4.77-1.15-4.35-1.82-6.84-5.32-8.44-9.5-1.26-3.29-2.1-9.7-1.25-12.85s1.59-6.62,4.37-9c1.91-1.65,3.39-3.84,6-4.61,1.27-.38,2.45-1.29,3.81-1,1.09.21,1.68-.84,2.69-.71,5.23.69,10.08,1.86,13.32,6.74,1.71,2.57,2.42,5.33,3.29,8.16a23.76,23.76,0,0,1,.59,5.65c.05.81-.16,1.14-1.06,1.13-3.6-.05-7.21,0-10.81,0Zm-3.34-5.9h4.9c1.42,0,2.84,0,4.26,0s1.46,0,1-1.48c-.1-.29-.08-.62-.17-.91-.74-2.2-1.72-4.28-3.84-5.46-2.48-1.36-5.14-2.54-8-1.91a9.13,9.13,0,0,0-5.56,3.18,19.15,19.15,0,0,0-2.92,5.66c-.22.64.16.94.87.94C421.29,160.09,424.45,160.11,427.62,160.11Z"/>
    <path class="a" d="M436.26,102.14c0,1.19,0,1.84,0,2.5a17.27,17.27,0,0,1-5,12.33c-2.39,2.54-5.38,3.55-8.62,4.57-3.61,1.13-6.88-.16-10.3-.16-3.28-1.88-6.95-3.31-8.82-6.93a24.86,24.86,0,0,1-2.76-7.73c-.27-1.78-.83-3.59-.47-5.3.53-2.51.37-5.17,1.54-7.54a19.24,19.24,0,0,1,4.64-6.59,15,15,0,0,1,9.5-3.93c1.64,0,3.29.08,4.92,0,2.84-.19,5.18,1.1,7.55,2.34,3.75,2,5.48,5.61,7.05,9.15A14.26,14.26,0,0,1,436.26,102.14Zm-6.58.34a13.2,13.2,0,0,0-7.1-12.92,9.68,9.68,0,0,0-9.48.49,11.82,11.82,0,0,0-5.7,10.3c0,1.42,0,2.84,0,4.26a11.79,11.79,0,0,0,6.77,11c1.61.86,3.13.47,4.68.57,4.21.27,6.86-2.15,8.87-5.46A14.22,14.22,0,0,0,429.68,102.48Z"/>
    <path class="a" d="M486.72,183.76c-3.62-.23-7.2-.72-10.36-2.68-3.43-2.12-5.43-5.14-5.35-9.33,0-.75.06-1.24,1-1.17a33.26,33.26,0,0,0,3.6,0,1.7,1.7,0,0,1,2,1.59c.6,3.25,1.35,3.77,4.57,5,2.13.84,4.22.33,6.31.6a7.74,7.74,0,0,0,5-1.35c1.41-.82,2.67-2.19,2.35-3.76s-.53-3.42-2.71-4.16a42.19,42.19,0,0,0-5.77-1.87,101.57,101.57,0,0,1-10-2.7c-2-.6-3.41-2.28-4.54-3.9a9,9,0,0,1-1.17-4.1c-.52-4.82,3.09-9.14,7.76-10.33,1-.26,1.91-1,3-.63s1.93-.87,3-.66c3.22.63,6.64.46,9.63,2a9.63,9.63,0,0,1,5.55,9.11c0,.9-.1,1.45-1.2,1.32a21.85,21.85,0,0,0-2.29,0c-2.26,0-2.26,0-3.09-2.4a5.14,5.14,0,0,0-2.75-2.86c-3.7-1.95-7.35-1.7-11.05,0a3.35,3.35,0,0,0-1.91,3.27,3.28,3.28,0,0,0,1.89,3.3,24.81,24.81,0,0,0,6.05,2.05A43.33,43.33,0,0,1,496.49,163c5.25,2.36,6.6,6,5.94,10.76a9.93,9.93,0,0,1-5.31,7.34,17.82,17.82,0,0,1-6.06,2A26.19,26.19,0,0,1,486.72,183.76Z"/>
    <path class="a" d="M380,21.8a22.38,22.38,0,0,1,6.3.48c4.55,1.21,7.66,4.52,8,8.81,0,.31,0,.71.17.9.95,1.08-.3,1.41-.7,1.45-1.52.15-3.06,0-4.59.07-.8,0-.67-.54-.85-1-.55-1.46-1.09-3.1-2.55-3.83-2.7-1.34-5.49-2.33-8.64-1.33-1.72.55-3.4,1.05-4.48,2.6s-.57,4.07,1,4.85a26.1,26.1,0,0,0,5.39,2c3.49.79,7,1.65,10.4,2.62a9.12,9.12,0,0,1,6.45,6,9.93,9.93,0,0,1-1.1,8.81c-2.37,3.36-5.22,4.79-9.14,5.55a29.77,29.77,0,0,1-7.62.52c-4.15-.27-7.95-1.67-10.7-5a9.08,9.08,0,0,1-2.6-6.12c0-1.42.49-1.93,1.86-2,.87,0,1.75,0,2.62,0,.71-.06.95.71,1.69.74s.3.89.39,1.38a6.49,6.49,0,0,0,5.53,5.08,43.89,43.89,0,0,0,7.86,0c2.76-.33,5.43-2.76,5-5.55-.38-2.37-2.22-3.49-4.1-4.15a71,71,0,0,0-8.33-2.09c-3.62-.8-7.34-1.66-9.8-4.81-2.91-3.75-2.88-7.38-.13-11.14a13.12,13.12,0,0,1,7.5-4.8C376.46,21.45,378.28,21.8,380,21.8Z"/>
    <path class="a" d="M441.51,102.75c0-5.8.05-11.59,0-17.38,0-1.29.42-1.46,1.49-1.38,1.4.11,3.2-.43,4.12.26s.18,2.64.33,4c0,.31-.14.83.23.84s.73-.37.91-.69c2-3.5,5.28-4.7,9-5a41.33,41.33,0,0,1,4.59,0c5.33.08,8.67,3.86,9.62,8.13a26.94,26.94,0,0,1,.56,6c0,7.54,0,15.08,0,22.62,0,.9-.08,1.44-1.19,1.34s-2.19,0-3.28,0c-1.63-.05-2.08-.47-2.1-2.07,0-2.4,0-4.8,0-7.21,0-5.9,0-11.8,0-17.7a5.73,5.73,0,0,0-3-4.59c-4.79-2.51-7.85-.91-11.81,1.48-1,2.31-3,4.11-2.93,7,.17,6.55.06,13.11.06,19.67,0,.65,0,1.31,0,2a1.38,1.38,0,0,1-1.41,1.43c-1.63,0-3.26,0-4.89,0-.57-1.36-.21-2.78-.23-4.16C441.47,112.36,441.51,107.55,441.51,102.75Z"/>
    <path class="a" d="M545.81,41.05c0-5.79,0-11.58,0-17.37,0-.88,0-1.45,1.17-1.35,1.5.12,3,.09,4.54.13.49,1.37.07,2.79.2,4.18,0,.31-.12.75.26.84.18,0,.45-.33.69-.5,1.17-.82,1.76-2.15,2.93-3a10.44,10.44,0,0,1,6.62-2.26,28.81,28.81,0,0,0,3.6,0c2.72-.35,4.85,1.11,6.87,2.41s2.84,3.38,3.41,5.76a25.82,25.82,0,0,1,.55,6c0,7.53,0,15.07,0,22.61,0,.91-.1,1.41-1.2,1.33-1.3-.1-2.62,0-3.93,0a1.41,1.41,0,0,1-1.44-1.41c-.05-.65,0-1.31,0-2,0-7.65-.05-15.29,0-22.94a4.94,4.94,0,0,0-1.35-3.73,10.9,10.9,0,0,0-3.13-2.09,10.09,10.09,0,0,0-13.28,9.77q0,9.49,0,19c0,.66,0,1.32,0,2a1.38,1.38,0,0,1-1.45,1.39c-1.63,0-3.25,0-4.87-.09-.53-1.36-.19-2.78-.21-4.16C545.78,50.66,545.81,45.85,545.81,41.05Z"/>
    <path class="a" d="M330,164.06c0-5.57,0-11.14,0-16.71,0-1.65,0-1.65,1.78-1.68h.33c1.19,0,2.7-.36,3.48.22s.21,2.23.3,3.39c0,.43-.08.91.53,1s.59-.27.83-.68c1.76-2.87,4.62-4,7.76-4.5.77-.12,1.36-.76,2-.68,3.89.47,8,.51,10.84,3.87a12,12,0,0,1,2.42,4.91,22.42,22.42,0,0,1,.55,6c0,7.32,0,14.63,0,21.95,0,.9-.09,1.42-1.19,1.33a22.77,22.77,0,0,0-3.6,0c-1.62.14-1.77.15-1.78-1.16,0-4.58,0-9.17,0-13.75,0-3.83,0-7.65,0-11.47,0-1.59-1.42-3.55-2.75-4.5-2.93-2.08-6-1.51-8.93-.38a9.53,9.53,0,0,0-6,9.15v19.32a7.79,7.79,0,0,1-.06,2.27c-.14.42-.28,1.43-1.51.72-.91-.52-2.32-.19-3.5-.22-1.47,0-1.49,0-1.49-1.65C330,175.19,330,169.63,330,164.06Z"/>
    <path class="a" d="M543,145.67c1,.13,2.37-.47,3.23.29.63.56.47,1.94.87,2.86,2.49,5.66,3.94,11.68,6.3,17.4a80,80,0,0,1,2.87,8.32c.06.19.14.52.23.53.4,0,.34-.31.44-.58.85-2.38,1.82-4.72,2.59-7.12,2.14-6.66,4.74-13.15,6.6-19.9.45-1.65.8-1.78,2.7-1.79,1.09,0,2.19,0,3.28,0s1.69.78,1.18,1.58c-1.06,1.67-1.29,3.66-2.1,5.36-2.6,5.49-4.47,11.27-6.76,16.88-1.79,4.37-3.46,8.85-4.92,13.38a87.21,87.21,0,0,1-3.34,8.45c-1,2.21-3,3.58-4.61,5.3-.5.55-1.18.18-1.8.4a8.35,8.35,0,0,1-6.45-.13c-.61-.27-.85-.4-.83-1.05,0-1.09,0-2.18,0-3.28,0-1.39,0-1.23,1.59-1.08a10,10,0,0,0,4.42-.25c2.13-.75,2.17-2.81,3.15-4.26.16-.23-.11-.79,0-.94a5.86,5.86,0,0,0,1.67-3.86c.09-1.42-.94-3-1.72-4.36-1.43-2.49-2-5.29-3.17-7.88s-2.22-5.42-3.29-8.14c-1.93-4.89-3.64-9.86-6-14.59-.44-.9.12-1.51,1.25-1.53C541.29,145.66,542.05,145.67,543,145.67Z"/>
    <path class="a" d="M360.16,40.66c0,5.46,0,10.92,0,16.38,0,2.57-.13,2.67-2.79,2.7-.43,0-.87,0-1.31,0-2,0-1.91.2-1.8-2.43a18.5,18.5,0,0,0,0-2,3.77,3.77,0,0,0-.3-.85l-.47.46-1.85,1.85A12.51,12.51,0,0,1,343,60.42a19.28,19.28,0,0,1-8-1.36c-2.61-1-4-3.26-4.93-5.7a12.11,12.11,0,0,1-.79-4.28c.13-8.3.06-16.6.06-24.9,0-1.82,0-1.87,2-1.82,1.28,0,2.93-.59,3.72.31.61.68.22,2.27.22,3.45,0,6.34.09,12.67-.05,19a30.79,30.79,0,0,0,.75,5.29c.21,1.5,3.57,4,5.21,4.07a34.34,34.34,0,0,0,3.93,0,7.89,7.89,0,0,0,6.58-4,13.75,13.75,0,0,0,2-7.39c-.11-6.44,0-12.88-.07-19.32,0-1.23.33-1.49,1.46-1.41,1.62.12,3.26.08,4.88.1.53,1.58.22,3.21.24,4.81C360.19,31.71,360.16,36.19,360.16,40.66Z"/>
    <path class="a" d="M380.61,145.67h1.32c2.53,0,2.55,0,3.41,2.56.81,2.39,1.59,4.8,2.37,7.21.88,2.7,1.71,5.41,2.64,8.09,1.27,3.63,2.62,7.22,3.91,10.84.1.28.05.76.36.77s.46-.42.69-.65c.62-.62-.16-1.82.93-2.24.07-2.85,1.77-5.22,2.43-7.83,1.29-5.14,3.29-10,4.79-15.08,0-.1,0-.23,0-.33,1-3.34,1-3.4,4.51-3.3,1.08,0,2.29-.57,3.28.37-.94.69-.87,1.91-1.12,2.8-.62,2.15-1.61,4.16-2.27,6.3-.6,2-.79,4.27-2.4,5.88-.42,3.59-2.31,6.7-3.39,10.07-1.17,3.65-2.9,7.11-3.91,10.84-.1.38-.34,1.23-1.56.65s-3-.26-4.5-.18a1.61,1.61,0,0,1-1.73-1.15c-1.29-4.37-3.19-8.52-4.64-12.84-1.1-3.25-2.39-6.44-3.59-9.66-1-2.65-2.09-5.27-2.87-8a7.88,7.88,0,0,0-.81-1.95c-.59-1-.51-2.11-1.06-3l2.89-.15Z"/>
    <path class="a" d="M403.46,40.74c0-3.71-.08-7.43,0-11.13,0-1.31-.44-1.43-1.5-1.38-1.4.06-2.81,0-4.21-.08-.47-1.47-.1-3-.24-4.49-.09-.89.06-1.39,1.17-1.34,1.51.07,3-.06,4.53-.1a20.48,20.48,0,0,0,.2-4.82c.05-1.53,0-3.06,0-4.59A1.55,1.55,0,0,1,405,11.2a2.83,2.83,0,0,1,.65,0c1.39.11,2.81-.25,4.18.18l.15,3.87c0,.32,0,.65,0,1,0,1.95.05,3.91.07,5.86a18.76,18.76,0,0,0,5.79.21c1.31-.05,1.45.45,1.37,1.51-.1,1.4.44,3.19-.25,4.11s-2.64.28-4,.31c-3,.07-3,0-3,2.82q0,9.66,0,19.32c0,2.65.79,3.43,3.39,3.47,1.19,0,2.76-.41,3.48.18.95.79.21,2.44.34,3.71,0,.44,0,.88,0,1.31,0,.61-.33.71-.81.7-3-.05-6,.29-8.89-.68a4.94,4.94,0,0,1-3.28-3.24,14.54,14.54,0,0,1-.86-4.28C403.59,48,403.46,44.34,403.46,40.74Z"/>
    <path class="a" d="M370.66,102.38c0-3.93,0-7.87,0-11.8,0-.89-.07-1.42-1.19-1.35-1.41.1-2.84,0-4.25,0-.77,0-1.28-.08-1.15-1,.19-1.37-.63-3.18.37-4,.78-.65,2.5-.18,3.8-.2a9.53,9.53,0,0,1,1.31,0c.84.09,1.12-.21,1.11-1.08-.05-3,0-5.9,0-8.85,0-1,.28-1.31,1.27-1.25a40.36,40.36,0,0,0,4.26,0c.91,0,1.07.32,1.06,1.13,0,3,0,5.9,0,8.84,0,1.07.39,1.27,1.32,1.22,1.31-.07,2.62,0,3.93,0,2,0,2,0,2,2.13,0,3.12,0,3.07-3,3.14-1.38,0-2.8-.34-4.16.22,0,1.3-.08,2.6-.08,3.9v19.66a2.23,2.23,0,0,0,2.08,2.43c.42.06.87,0,1.3,0,1.27.15,3-.67,3.69.37s.12,2.54.15,3.84c0,1.06-.64,1.71-1.52,1.63-1.78-.14-3.62.61-5.36-.5-.54-.35-1.48-.07-2.24-.11a3.48,3.48,0,0,1-3.54-2.44,12.6,12.6,0,0,1-1.14-4.45C370.71,110,370.66,106.2,370.66,102.38Z"/>
    <path class="a" d="M522.85,164.33c0-4.15,0-8.29,0-12.44,0-.67-.14-1-.87-1-1.64,0-3.28,0-4.92,0-.5,0-.82-.16-.78-.73,0-.22,0-.44,0-.65.15-1.27-.63-2.93.35-3.71.75-.59,2.3-.16,3.5-.16,2.7,0,2.7,0,2.7-2.73,0-2.52,0-5,0-7.54,0-.72.27-1,.95-.89.33,0,.66,0,1,0,1.28.1,3-.6,3.72.29s.23,2.48.25,3.78,0,2.62,0,3.93c0,3.13,0,3.13,3,3.14.77,0,1.53,0,2.3,0,2.57,0,2.57,0,2.58,2.53,0,2.72,0,2.72-2.71,2.72-1.1,0-2.19,0-3.28,0-1.37,0-1.86.54-1.88,2,0,3.17,0,6.33,0,9.5,0,3,.16,5.91-.07,8.84-.13,1.68.79,3,.8,4.64,0,.92,1.32,1.16,2.16,1.25a22.42,22.42,0,0,0,3.93,0c.91,0,1.1.33,1.06,1.13-.07,1.3.4,2.94-.22,3.81s-2.43.26-3.71.31a43.62,43.62,0,0,1-5.24,0,3.6,3.6,0,0,1-3.39-2.17,9.61,9.61,0,0,1-1.26-4.41C522.92,172,522.85,168.16,522.85,164.33Z"/>
    <path class="a" d="M521.54,95.84v23.9c0,1.63,0,1.66-1.48,1.66-5.61,0-5.09.58-5.08-5V73.2c0-.76,0-1.53,0-2.29s.61-1.07,1.2-1.32a1.57,1.57,0,0,1,.65,0l4.52.15a14.3,14.3,0,0,1,.16,4.18C521.56,81.22,521.54,88.53,521.54,95.84Z"/>
    <path class="a" d="M489.4,34.13q0,12,0,23.92c0,1.66,0,1.68-1.45,1.68-1.62,0-3.25-.06-4.87-.09a15.92,15.92,0,0,1-.22-4.82q0-22.12,0-44.24c0-2,0-2,2.11-2,1.4,0,3.2-.46,4.11.23s.31,2.64.31,4C489.42,19.93,489.4,27,489.4,34.13Z"/>
    <path class="a" d="M423.14,41c0-5.8,0-11.59,0-17.38,0-1,.19-1.38,1.24-1.29,1.5.12,3,.12,4.52.18.38,1.38.07,2.8.16,4.19,0,.77,0,1.53,0,2.3,0,.18.18.35.28.53a2.48,2.48,0,0,0,.35-.45,14.2,14.2,0,0,1,2.66-3.81A12.32,12.32,0,0,1,442,21.68c.8,0,.82.45.81,1,0,.77,0,1.53,0,2.3,0,1,.32,2.17-.12,2.88s-1.81.19-2.74.36c-5,.88-7.64,3-9.62,8.13a10.71,10.71,0,0,0-.66,4c0,6,0,12,0,18,0,.91-.09,1.42-1.19,1.34-1.73-.12-3.46-.11-5.19-.15a20.82,20.82,0,0,1-.18-5.17C423.11,50,423.14,45.48,423.14,41Z"/>
    <path class="a" d="M449.38,163.7c0-5.56,0-11.13,0-16.7,0-.89.06-1.44,1.18-1.35,1.51.13,3,.11,4.54.15.42,1.48.11,3,.2,4.5,0,.21,0,.44,0,.65,0,.41-.23,1.07.25,1.16s.26-.63.47-.91a13.82,13.82,0,0,1,6.82-5.53l4.7-1.31a1.39,1.39,0,0,1,1.5,1.34,28,28,0,0,1,0,4.58,1.47,1.47,0,0,1-1.86,1.3c-2-.3-3.62.54-5.38,1.27a9,9,0,0,0-5.1,5.88,25.69,25.69,0,0,0-.83,3.94c-1.06,6.24-.33,12.5-.55,18.74,0,.63-.08,1-.85,1-1.62-.07-3.24-.09-4.86-.13a16.55,16.55,0,0,1-.2-4.5C449.36,173.09,449.38,168.4,449.38,163.7Z"/>
    <path class="a" d="M389.68,102.66c0-5.78,0-11.56,0-17.35,0-.91.1-1.4,1.19-1.32,1.73.12,3.46.11,5.19.15a21.23,21.23,0,0,1,.18,5.16c0,9.49,0,19,0,28.48,0,.76,0,1.53,0,2.29s-.6,1.07-1.2,1.32a1.57,1.57,0,0,1-.65,0l-4.52-.15a14.65,14.65,0,0,1-.16-4.18C389.66,112.27,389.68,107.47,389.68,102.66Z"/>
    <path class="a" d="M366.72,163.69q0-8.17,0-16.36c0-1.62,0-1.65,1.47-1.65,1.62,0,3.24.07,4.86.1a17.33,17.33,0,0,1,.21,4.82c0,10,0,20.07,0,30.1,0,2,0,1.7-1.76,1.71-1.08,0-2.41-.34-3.18.16-1.49,1-1.4-.28-1.59-.9a7,7,0,0,1,0-1.95Z"/>
    <path class="a" d="M513,164c0,5.57,0,11.14,0,16.71,0,1.64,0,1.67-1.47,1.66-1.62,0-3.24-.06-4.87-.1a16.92,16.92,0,0,1-.2-4.82c0-9.93,0-19.87,0-29.81,0-2,0-2,1.8-2,1.51,0,3,.06,4.54.1a15.74,15.74,0,0,1,.21,4.49C513,154.86,513,159.45,513,164Z"/>
    <path class="a" d="M501.86,41.37c0,5.69,0,11.37,0,17.05,0,.91-.09,1.42-1.2,1.34-1.41-.09-2.85.07-4.25-.09-.35,0-1.57-.36-.65-1.5.39-.48.17-1.46.17-2.21q0-14.91,0-29.84a16.17,16.17,0,0,0,0-2c-.18-1.65-.17-1.77,1.14-1.79,1.51,0,3,.05,4.55.08a14.78,14.78,0,0,1,.21,4.5C501.89,31.75,501.86,36.56,501.86,41.37Z"/>
    <path class="a" d="M373.18,135.33c0,1.19.47,2.77-.11,3.46-.78.91-2.44.28-3.71.31-2.63.05-2.64,0-2.63-2.77,0-1.62.06-3.24.09-4.86,1.69-.51,3.44,0,5.13-.25,1.38-.21,1.42.5,1.35,1.5s0,1.74,0,2.61Z"/>
    <path class="a" d="M389.65,73.51c.19-1.27-.57-3,.35-3.69s2.48-.24,3.77-.23c2.15,0,2.43.29,2.47,2.33a18.12,18.12,0,0,1,0,2c-.09,1.16.54,2.67-.31,3.39-.64.54-2.06.19-3.14.18s-2.38.31-2.79-.18C389.18,76.27,389.84,74.78,389.65,73.51Z"/>
    <path class="a" d="M506.42,135.15c.19-1.25-.57-3,.35-3.67s2.47-.24,3.76-.23c2.24,0,2.46.26,2.48,2.64,0,1.19,0,2.39,0,3.58,0,1-.62,1.48-1.53,1.64a5.35,5.35,0,0,1-1,0c-1.28,0-2.93.39-3.75-.25S506.6,136.43,506.42,135.15Z"/>
    <path class="a" d="M501.93,12.15c-.08,1.16.25,2.77-.37,3.37s-2.23.22-3.4.26a3.47,3.47,0,0,1-1.29,0c-.71-.27-2.14-.15-1-1.69.36-.48,0-1.48.07-2.23.06-1.06-.5-2.49.28-3.06s2.07-.18,3.14-.21c.54,0,1.08,0,1.62,0,.75-.05.89.33.86,1,0,.87,0,1.73,0,2.6Z"/>
    <path class="a" d="M210.6,153.35c-.26-1.1.47-2.57-.44-3.82-.4-.55.1-.55.29-.56,1.2,0,2.4,0,3.6,0,.78,0,2.57,1.27,2.39,1.76-.28.77-.15,1.91-1.31,2.17-.79.17-.73.64-.42,1.16.68,1.14,1.37,2.27,2.09,3.39.18.27.41.47,0,.69a2.37,2.37,0,0,1-2.29-.83c-.1-.18-.26-.33-.36-.51-.47-.82-.93-1.65-1.39-2.48a3.94,3.94,0,0,0,.05,3.07c.23.44.53.67-.2.75-.21,0-.44,0-.65,0-1.65.25-3.32-.39-5,.56-1.31.73-3.18-.59-4.61.72-.31.28-.77-.1-1.1-.44-.74-.79-1.52-1.57-2.31-2.31-.17-.15-.3-.73-.66-.28-.17.21-.1.61-.15.92-.1.66.49.89.8,1.3.84,1.13.76,1.34-.59,1.49-.63.06-1.26-.1-1.78.52-.18.21-.55-.37-.38-.53,1.28-1.17.16-2.38-.11-3.38-.41-1.53-.08-3.4-1.62-4.56-.51-.38,0-.56.23-.55,1.38.05,2.54-.93,4-.72,1.65.24,2.27.8,2.09,2.46-.26,2.26-.26,2.26,1.08,3.59.23.23.48.45.69.7s.63.65,1.1.5.36-.68.41-1.09c.27-2-.75-3.89-.84-5.9-.06-1.5-.32-1.48.91-1.53,1-.05,2.14.28,3-.63.08-.09.72.12.78.3a2.36,2.36,0,0,1,0,1.29c-.12.39-.38.11-.67,0-1.93-.55-1.94-.52-1.93,1.39a5.33,5.33,0,0,0,0,1c.15.78.64.72,1.16.38a5.06,5.06,0,0,0,.7-.69c.34-.37.66-.61.74.15a8.06,8.06,0,0,1,0,1.3c-.05,1-.39.59-.88.24a1.28,1.28,0,0,0-1.49,0c-.48.47-.32,1.12,0,1.75.77,1.66,1.39,1.95,2.68.71s.95,0,1.21.5c.06.13.37.17.57.17.37,0,.57-.2.57-.6C210.59,155.78,210.6,154.69,210.6,153.35Zm-13.17-1.48c.24.45-.88.28-.4.87a1.38,1.38,0,0,1,.45,1.13c0,.42-.1.88.5,1s.76-.3,1.06-.58a.85.85,0,0,0,.13-1.36C198.57,152.22,197.93,151.74,197.43,151.87ZM213,150.28c-.14.11-.42.22-.43.35a13.52,13.52,0,0,0,0,1.91c0,.13.28.3.46.34.64.14.9-.42,1.26-.77a.66.66,0,0,0,0-1.08C213.93,150.69,213.68,150.14,213,150.28Z"/>
    <path class="a" d="M21,156c0-.87,0-1.75,0-2.62a1.49,1.49,0,0,1,.63-1.39c.57-.45.85-.6,1.4.26a22.69,22.69,0,0,0,4.13,5.19,2.74,2.74,0,0,0,1,.71,1.8,1.8,0,0,0,1.2-.18.91.91,0,0,0,.15-.87c-.83-1.37-.68-2.87-.61-4.34a1.87,1.87,0,0,0-.86-1.62.7.7,0,0,0-1.1.14c-.18.27.19,1-.46.85-.34-.06-.67-.55-.86-.92s0-.86.25-.82c2.06.28,3.89-1.11,5.95-.75.86.15,1.21.55,1,1.52-.06.25-.5.68-.54.2-.14-2-1.28-.38-1.56-.31-1,.28-.39.82-.06,1.41.5.87.18,1.9.18,2.86s0,2.11,1,2.9c.63.47,0,.66-.37.61a10.16,10.16,0,0,0-5.56.83c-1.06.52-.92.27-1-.52,0-.52.32-1.25-.26-1.49a3.43,3.43,0,0,0-1.91-.09,1.24,1.24,0,0,0-.51,2.17c.67.73.83.66-.33,1.19-2.75,1.22-4.85.14-6.88-1.26-.69-.48-1.56-.65-2.11-1.32,0,0-.31.09-.44.19a.34.34,0,0,0,0,.31c.61,1.17,1.31,2.3,1.82,3.51.28.66,1.52.07,1.23.89-.22.62-1,1-1.63,1.49-.1.08-.4,0-.58-.13s-.17-.28.08-.46A.77.77,0,0,0,13.7,163c-1.43-1.89-1.8-4.37-3.47-6.11-.23-.24-.43-.65-.05-.65.65,0,.93-.46,1.38-.68s.79.13,1.1.47c1.23,1.33,3.12,1.51,4.5,2.57.25.19.35.29.47,0s.17-.5.09-.61c-.89-1-.94-2.54-2-3.44-1.41-1.2.3-.83.57-1.16s.77-.75.74.07c-.08,2.47,1.59,4.17,2.54,6.18.14.3-.26,1.27.64.91a1.27,1.27,0,0,0,.81-1.28C21,158.14,21,157.05,21,156Zm1.67.89c.57,0,1,0,.95-.66s-.94-1.42-1.49-1.31-.43.58-.48,1C21.52,156.84,22.11,156.89,22.68,156.84Z"/>
    <path class="a" d="M55.12,159.14c0,.87,0,1.74,0,2.61,0,2-.16,2.05-2.1,1.19-.27-.13-.62-.11-.87-.25-.44-.26-.12-.41.11-.62,1.15-1,1.19-1.3.47-2.06s-1.77-.92-2.42.06-.92,1.78-2.28,1.17-2.81-1.09-2.76-3a5.9,5.9,0,0,0-.19-1.88,1.15,1.15,0,0,0-.88-.68c-.37,0-.27.55-.21.83.2,1-.89,2,0,3.07,0,.06-.18.34-.28.51-.7-1-1.76-.47-2.65-.67-.43-.09-.23-.5,0-.65,1-.54.62-1.81,1.19-2.43.85-.9,0-2.05.81-3a2,2,0,0,0-.24-2.62c-.31-.32.3-.57.44-.43,1,1,2.37.42,3.5,1.06,2.13,1.22,2.52,2.63.53,4.08-.73.52-.64.92-.7,1.47s.81.72.65,1.36a1.46,1.46,0,0,0,1,1.78c.93.2,1.16-.78,1.65-1.47,1.09-1.54,2.67-2.71,3.61-4.41.12-.23.57-.55.65-.5.35.24.86.58.88.91C55.18,156.09,55.12,157.61,55.12,159.14Zm-8.53-5.28c-.21-.52.49-1.34-.48-1.61-.65-.19-1.37.66-1.48,1.64-.08.64.09,1,.83,1S46.77,154.85,46.59,153.86Zm6.57,3.7c.06-.26-.06-.67-.34-.69s-.45.4-.66.63a1.43,1.43,0,0,0-.31.51.6.6,0,0,0,.36.76c.4.11.86.1.94-.49A5.49,5.49,0,0,0,53.16,157.56Z"/>
    <path class="a" d="M110.88,181.75a1.82,1.82,0,0,1,0,.33,5,5,0,0,1-1.61,2.92c-1.35-.7-1.17-2-1-3.1s-.77-1.49-.74-2.35c0-.11-.23-.24-.38-.34s-.22.16-.21.21c.38,1.34-.76,2.37-.7,3.64s0,1.34-.88,1.31c-.31,0-.78,0-.88-.17-.31-.51.39-.57.56-.9s.43-.32.43-.46c-.12-2.23,1.2-4.29.76-6.54a.65.65,0,0,0-.39-.43c-.3-.06-.72-.1-.85.26a36.33,36.33,0,0,0-1.35,4c-.69,3-3.18,3.56-5.3,2.28-1.32-.8-1.7-1.84-1.1-3.79a14.79,14.79,0,0,0,1.13-5.4c.86.24,2.13-.61,2.53.54.19.53-.71,1.39-.93,2.15-.4,1.37-1.16,2.65-1,4.19a1.74,1.74,0,0,0,1.26,1.62,1.27,1.27,0,0,0,1.67-.61c.69-1.94,2.49-3.64,1.32-6-.23-.47,0-.68.53-.56,1.31.27,2.55.85,4,.71a1.27,1.27,0,0,1,1.1,1.35c-.14,1.6,1,3,.73,4.64C109.48,182,110.42,181.66,110.88,181.75Z"/>
    <path class="a" d="M64.5,161.77a1.18,1.18,0,0,1-.51.31c-1.32,1.3-2.62,2.6-3.92,3.91-.75-1.85-.17-3.79-.36-5.67a3.49,3.49,0,0,0-.31-.85c-.23.22-.56.39-.67.66-.37.93-.68,1.89-1,2.85-.18.57.35,1.36-.45,1.7s-1-.75-1.68-.66c-.31,0-.58-.22-.51-.63a1.61,1.61,0,0,0,2-1.24c.56-2.06,2.08-3.8,2-6.07,0-.22,0-.57.52-.4a2.54,2.54,0,0,1,2.08,2.38,13.58,13.58,0,0,1-.16,3.87c-.07.23-.75.3-.25.67a.88.88,0,0,0,.85,0c1.12-1.05,2.18-2.16,3.27-3.22a2.22,2.22,0,0,1,2.85.52.78.78,0,0,1-.28.85,9.14,9.14,0,0,0-3,5.92c-.07,1.5,0,1.44-1.59.76A3.4,3.4,0,0,1,62,166.7c-.24-.28-.3-.42,0-.7a7.39,7.39,0,0,0,2.47-4.23c.06-.2-.12-.12-.18,0s0,.41.27.27.22-.24.3-.38S64.77,161.55,64.5,161.77Z"/>
    <path class="a" d="M87.92,169.29c2.44.17,2.58.31,2.63,2.52,0,1.5.09,3,.14,4.51,1.5-.64,2.31-2.06,3.45-3.1,1.66-1.53,1.62-1.57,4.28,0-1.18-.25-2.1.06-2.32,1.35-.35,2-2.07,3.64-1.64,5.9.12.62-.28.68-.69.23s-1.06-.09-1.52-.29-.86-.54-.91-.88c-.09-.6.65-.24.87-.47.44-.43,1.24-.76.94-1.55s1.32-1.44.6-1.94-1.18.76-1.8,1.18c-.93.63-1.39,1.82-2.55,2.2-.06-1.07-.12-2.14-.16-3.21,0-.65,0-1.31,0-2,0-.36-.22-.54-.61-.56s-.7.16-.68.49c.08,1.28-1.12,2.31-.69,3.67.1.34-.14,1.15-.3,1-.49-.49-1.26-.36-1.62-.88a.68.68,0,0,1,.19-.88c1.89-1.4,1.55-4,3-5.65C89.08,170.3,87.85,170,87.92,169.29Z"/>
    <path class="a" d="M135.23,180.44c-.12,2.8-.87,4.37-3,5.32-.82.37-1.34.74-2.28.36-1.8-.74-1.71-.75-2.47-1.82-1.47-2.08-.9-4.22-.07-6.16.51-1.22,2-1.73,3.49-1.63s2.83.39,3.61,1.92A5.18,5.18,0,0,1,135.23,180.44Zm-6.63.42a4.5,4.5,0,0,0,1,3.55c.85,1.12,2.41.77,3.11-.56,1-1.9.46-3.62-.49-5.3-.6-1.06-1.74-.86-2.6-.67a1.46,1.46,0,0,0-1.07,1.75A7.93,7.93,0,0,1,128.6,180.86Z"/>
    <path class="a" d="M182.48,156.89c.31.07,1.44-.5,1.2.87-.49,2.85,1.17,4.28,3.38,5.43.17.09.76,0,.56.52a.75.75,0,0,1-.5.32c-.68.15-1.43,1.12-2-.18-.19-.44-.71-.36-1.09-.51-.73-.27-.94-1.57-2-1.17-.42.15.55,2,1.65,2.47.93.36.63.57.16.91a8.94,8.94,0,0,1-1.83,1.09.63.63,0,0,1-.92-.55,14.23,14.23,0,0,0-2.92-6.62c-.43-.6-.69-1.05.32-1.35C179.72,157.76,180.67,156.53,182.48,156.89Zm-.09,2.73c-.17-.52.41-1.4-.65-1.46-.39,0-1-.26-1.17.2a2,2,0,0,0,0,1.48c.21.39.53.94,1.18.92C182.63,160.74,182.31,160.07,182.39,159.62Z"/>
    <path class="a" d="M156.51,178.39c-2.37.62-3.28-1-4-2.64-.41-.91-1-2-.81-2.84a6,6,0,0,1,2.69-3.38,3.89,3.89,0,0,1,3.42-.13c1.44.64,1.88,2.35,2.58,3.73a1.77,1.77,0,0,1-.07,2.26c-.28.34,0,1.12-.29,1.48C159.14,178,158.12,179,156.51,178.39Zm2.24-3a4.65,4.65,0,0,0-1.56-4.06,2.76,2.76,0,0,0-2.86-.54,2.08,2.08,0,0,0-.76,2.57,7,7,0,0,0,2.54,4.13c.5.38.8.25,1.36.07C158.74,177.12,159,176.36,158.75,175.38Z"/>
    <path class="a" d="M144.55,173.88a2.48,2.48,0,0,1,2.44,1,2.3,2.3,0,0,0,1.53,1c.77.1,1.19,1.72,2,1.16,1.25-.83-1-1.72-.34-2.82.06-.1-.52-.63-.84-.91s-.63-.73-.38-1.11,1.24-.27,1.56-.94c.12.15.37.39.34.42a2.75,2.75,0,0,0,.12,3c.56,1,.47,2.19,1.17,3.14.5.67,1.39,1.76.38,2.45-.8.55-1.73-.48-2.38-1-1.22-1-2.61-1.63-3.88-2.5-.22-.16-.35-.32-.46-.13s-.23.48-.16.56c1,1.26.42,3.52,2.52,4.18.24.07.17.83-.34,1s-1.08-.21-1.51.3c-.22.27-.47.42-.67,0-.09-.17-.11-.53,0-.63.61-.59.85-1,.2-1.87s-.5-2-.91-2.87-.21-2.11-1.64-2.23c-.34,0-.36-.53-.28-.83a.63.63,0,0,1,.75-.42C144,173.9,144.22,173.88,144.55,173.88Z"/>
    <path class="a" d="M78.53,164.7a4.41,4.41,0,0,1,3.54,1.7,1.53,1.53,0,0,1,0,2.45c-.43.43-.72,1.1-1.5,1.1-.36,0-.62.22-.55.61.21,1.13-.49,2.37.41,3.43.33.39.57.91-.1,1.19s-1-.26-1.33-.69a8.49,8.49,0,0,1-.31-3.58c0-.29.14-.69-.23-.87s-1-.18-1,.3c-.17.92-.86,1.61-.74,2.68.17,1.48-.5.37-1,.25a2.07,2.07,0,0,1-1.11-.51c-.31-.33-.5-.47-.09-1a12.07,12.07,0,0,0,2.83-6.65C77.51,163.81,77.85,164.11,78.53,164.7Zm2.18,3a1.32,1.32,0,0,0-.92-1.54c-.39-.16-.82.5-1,1-.12.26,0,.62-.33.84a.74.74,0,0,0-.21,1.11,1.23,1.23,0,0,0,1.49.15C80.21,168.94,80.84,168.51,80.71,167.71Z"/>
    <path class="a" d="M34.13,153.46c-.26-.92.48-2.18-.38-3.22-.33-.39-.12-.57.16-.61a11.21,11.21,0,0,1,1.64,0c1.19,0,1.15,0,.78,1.42-.5,1.91-.11,3.87-.24,5.79a.58.58,0,0,0,.53.66q2.34.6,2.76-1.74a4.25,4.25,0,0,1,.26-1.53,3,3,0,0,0-.15-3.53.64.64,0,0,1,.28-1,2.32,2.32,0,0,1,1.28,0,.58.58,0,0,1,.28.81c-1,1-.52,2.23-.64,3.35a6.33,6.33,0,0,1-.53,2.74c-.41.76-.28,2.05-1.36,2.16-1.42.14-3,.52-4.15-1a2.15,2.15,0,0,1-.53-1.43C34.16,155.42,34.13,154.55,34.13,153.46Z"/>
    <path class="a" d="M135.81,179.41c0-2.54,1.08-3.78,3.65-4.21a4.66,4.66,0,0,0,.89-.23c1.41-.53,2.05,0,2,1.53a1.56,1.56,0,0,1-.22.56c-.15-.09-.31-.16-.46-.26-1.31-.9-3-1.16-3.51-.25s-1.95,2.17-.42,3.53c-.1,1.79,1.07,2.47,2.46,3.21,1,.55,1.51-.22,2-.53s-.14-.87-.44-1.29-.94-.33-.52-.9a1.6,1.6,0,0,1,1.63-.8c.48.07.8.16.78.73,0,.32-.11.79.05.94,1.25,1.12.16,1.2-.53,1.89-1.49,1.49-3.09,1.29-4.7.75C136.36,183.36,135.81,182.23,135.81,179.41Z"/>
    <path class="a" d="M187.64,156.08c0,.32-.11.7,0,1a2.09,2.09,0,0,0,.84.94c.45.19.56-.49.92-.62s-.21-1.3.67-1a1.35,1.35,0,0,1,.84,1.58c-.08.43-.06.94-.68.81-1.42-.31-1.49.59-1.27,1.51a1.81,1.81,0,0,0,2.32,1.05c.28-.14.45-.48.71-.67s.51-.89.84-.16a2,2,0,0,1,0,1.27c-.1.35-.73.18-.8.31-.58,1-1.78.35-2.56,1-.59.52-.87.14-1.46-1a17.66,17.66,0,0,1-1.65-4.54,2,2,0,0,0-.62-1.05c-1.08-1.13-1-1,.37-1.89.9-.62,2-.43,2.86-1.06s1.31,0,1.29,1.07c0,.58.09.89-.82.44C188,154.4,187.6,154.76,187.64,156.08Z"/>
    <path class="a" d="M217.81,155.56c.18-.95-.34-2,.55-3,.38-.42.26-1.42-.06-2.14-.1-.23-.75-.52-.27-.63a8.94,8.94,0,0,1,2.83,0c.38,0,.21.55.22.85,0,.07-.14.16-.22.23-1.57,1.38-.56,3.61-1.69,5.18-.33.45,1.19,2,2,2.14s1.66-.46,1.89-1.62c.28-1.41.59-2.8.91-4.19.05-.24.59-.36.13-.7s-.59-.76-.28-1.09c.55-.62.63.57,1.24.42s.49.14.29.68c-.64,1.69-1.1,3.46-1.63,5.19-.85,2.77-2.05,3.18-4.62,2C217.45,158.09,217.89,156.83,217.81,155.56Z"/>
    <path class="a" d="M73.49,167.32c-.36-.08-.82.19-1.18-.19s-.61-.79-.78.05-1,1.36-.68,2.33c.12.37.07,1.11-.37,1a5.31,5.31,0,0,1-2.18-1c-.29-.21.11-.71.35-1.08,1.33-2,2.88-4,2.89-6.6a.6.6,0,0,1,.94-.47c.71.65,1.67.76,2.41,1.29s2,1,1.82,2.3C76.43,166.64,75.25,167.37,73.49,167.32ZM73,166c.78.22,1.2-.32,1.64-.8a.71.71,0,0,0-.08-1.11l-.69-.69a25.48,25.48,0,0,0-1.59,2.26C72.15,165.84,72.64,166.05,73,166Z"/>
    <path class="a" d="M175.5,159.46c.83-.16,1.14.53,1.59.95a.7.7,0,0,1,0,.62c-.14.35-.38.38-.65.06a.86.86,0,0,0-.51-.31,1.84,1.84,0,0,0-1.74.56c-.7.76.66.95.32,1.57,0,.08.22.33.33.5.55.92,1,.36,1.38-.13a.7.7,0,0,1,1.17.05c.21.26.48.46.69.71s.25.36.2.45a.6.6,0,0,1-.85.15c-.42-.35-.68-.74-1.2-.08-.36.46-.77.91-.17,1.34s0,1.6,1.32,1.46a1.88,1.88,0,0,0,1.67-1.22c.12-.25.31-.77.35-.72.3.39.43.93.75,1.3s0,.49-.25.6a21.4,21.4,0,0,0-3.28,1.54c-1.17.81-1.18.48-1.56-.72a14.42,14.42,0,0,0-2.61-5.13c-.37-.46-1.22-.92-1.16-1.25.11-.53,1-.61,1.54-.86a4.28,4.28,0,0,0,1.53-1A1.08,1.08,0,0,1,175.5,159.46Z"/>
    <path class="a" d="M162.86,166c.74-.07,1.36,0,1.15,1-.07.35.29,1.33-.68.58a1.32,1.32,0,0,0-.87-.27c-.94,0-1.85.8-1.72,1.48a1.9,1.9,0,0,0,2,1.13c.68-.19,1.2-.89,2-.64,1.49.45,2.43,3.21,1.57,4.55-.66,1-1.81,1.4-2.78,2-.6.36-1.64-.83-1.54-1.6s.43-.26.56-.09a1.31,1.31,0,0,0,1.46.4,1.71,1.71,0,0,0,1.27-1.91c-.14-.88-1-1.57-1.76-1.18-1.13.6-2.33,1-3.07-.19-.57-.9-1.67-1.85-.74-3.33A3.3,3.3,0,0,1,162.86,166Z"/>
    <path class="a" d="M229.62,155.41c-.22.89.47,2-.5,3-.26.25.19.4.5.43s1.15-.26.42.55c-.58.64-1.24,1.21-1.83,1.85a.75.75,0,0,1-.88.19c-.42-.17-.09-.41,0-.68.69-1.76.13-3.61.28-5.42,0-.11-.24-.25-.36-.37-.09.18-.19.36-.27.54-.7,1.48-1.66,2.88-1.34,4.68.11.61-.18.54-.7.27-1.49-.77-1.44-.66-.72-1.85,1.2-2,2.82-3.81,2.75-6.35,0-.64.46-.72.87-.61a2.18,2.18,0,0,1,1.76,2.39Z"/>
    <path class="a" d="M123,186.35a2.63,2.63,0,0,1-3.29-1.45c-.53-1.49-1.83-3-.39-4.94.68-.91,1-2.21,2.18-2.57a5.45,5.45,0,0,1,4.54.42c.21.13.8.16.35.5s-.2,1.12-.68,1.34c-.32.16-.29-.38-.44-.55-1.4-1.63-1.8-1.49-3.43-.21-1.39,1.11-1.2,2.45-1.1,3.8.07,1,1.92,2.63,2.89,3,.8.3,1-.7,1.68-.66a.59.59,0,0,1,.64.55c.06.34-.07.72-.39.75C124.82,186.4,124.06,186.35,123,186.35Z"/>
    <path class="a" d="M166,167.43c.06-1.44-.19-2.47.87-3.33s2.15-2,3.74-2c.2,0,.7-.35.66.31a5.62,5.62,0,0,1,0,1.3c-.12.4-.4.21-.67,0-.83-.67-1.5-.34-2.24.29a2.55,2.55,0,0,0-1,2.54,6.64,6.64,0,0,0,2.93,3.95,1.94,1.94,0,0,0,2.37-.26c.46-.46.93-.91,1.38-1.39.19-.2.34-.21.45.08s.15.5.06.62a5.26,5.26,0,0,1-4.16,2.41,2.42,2.42,0,0,1-2.28-.86C167.14,169.83,165.27,169.11,166,167.43Z"/>
    <path class="a" d="M113.29,185.69h-.5c-1.46,0-1.58-.13-.81-1.38a6.12,6.12,0,0,0,.86-3.9c0-.19-.16-.52-.24-.52-.37,0-.33.36-.43.62a3.25,3.25,0,0,1-.74,1c-.12.14-.36.17-.55.24a2.35,2.35,0,0,1,0-.65c.54-1.58,1.71-2.78,2.55-4.18.26-.43,2-.11,2.47.32.23.23.13.25,0,.49-1.41,3.1-2.12,5.05-1.7,6.45S114.53,185.94,113.29,185.69Z"/>
    <path class="a" d="M236.1,155.78a2.52,2.52,0,0,1-.31.44c-1.42,1.63-2.1,3.66-3,5.59-.08.19-.41.3-.43.47,0,.55,1,1.41.37,1.44a6,6,0,0,1-2.89-1.11c-.57-.31,0-.42.25-.53,1.64-.9,1.51-2.92,2.63-4.17.24-.27-.21-.39-.51-.45s-.93.2-.61-.27a13.05,13.05,0,0,1,2.27-2.31C234.29,154.53,236.08,155.31,236.1,155.78Z"/>
    <path class="a" d="M80.71,175.19a1.55,1.55,0,0,0,1.85-.91c.79-1.6,1.11-3.39,2.06-4.95.33-.55-.41-1.43.42-1.94.49,1.06,1.9.12,2.44,1.12.14.26.55.37.44.78a1.51,1.51,0,0,0-1.84.91c-.82,2-2.11,3.91-2.1,6.23,0,.34,0,1-.6.42C82.59,176.11,81.2,176.38,80.71,175.19Z"/>
    <path class="a" d="M161.76,173.88c-.1-.13-.31-.29-.28-.38.08-.25.27-.3.38-.12a2.15,2.15,0,0,1,.19.5Z"/>
    <path class="a" d="M230.93,158.14a.55.55,0,0,1-.65.65A.55.55,0,0,1,230.93,158.14Z"/>
    <path class="a" d="M231.59,157.48c0,.46-.2.67-.66.66C230.91,157.68,231.13,157.47,231.59,157.48Z"/>
    <path class="a" d="M123.71,77.47c-2.63-.06-5,1.19-7.53,1.6-3.83.61-7.39,2.26-11.2,3-1.86.37-3.59,1.35-5.43,1.9-3.78,1.15-7.67,2-11.39,3.37-2.37.85-5.06.85-7.13,2.55-4.3.48-8.15,2.48-12.22,3.71-.2.06-.39.24-.56.22-1.32-.18-3,.69-3.84-.93A4,4,0,0,1,66.17,88a93.13,93.13,0,0,1,8.59-4.58C85,78.88,95,73.77,105.15,69c5.47-2.6,10.91-5.3,16.81-6.91a5.14,5.14,0,0,1,3.33,0c3.14,1.12,6.27,2.23,9.33,3.6,8.77,3.91,17.33,8.27,26,12.41,4.82,2.29,9.66,4.59,14.57,6.72a19.08,19.08,0,0,1,7.18,4.83,3.7,3.7,0,0,1,.43,3.54,1.44,1.44,0,0,1-1.32.77,9.73,9.73,0,0,1-3.69-.61,55.48,55.48,0,0,0-6-2c-2-.69-4.1-1.1-6.12-1.84a50.05,50.05,0,0,0-6.36-2c-2.11-.46-4-1.53-6.08-1.91-3.44-.63-6.66-1.94-10-2.82-2.94-.77-5.88-1.6-8.76-2.57s-5.93-1.4-8.78-2.54A5.45,5.45,0,0,0,123.71,77.47Z"/>
    <path class="a" d="M73.38,99.71a21.51,21.51,0,0,1,12.79,3.76A52,52,0,0,0,93,107.53c3.17,1.55,6.61,2.12,10.13.38a57.42,57.42,0,0,0,5.54-3.18,75.42,75.42,0,0,1,6.74-3.6,11.42,11.42,0,0,1,5-1.37c1,0,2,0,3,0,4.81-.07,9,1.65,13.06,4.13a44.34,44.34,0,0,0,8.61,4.52,9.44,9.44,0,0,0,7.2-.53,26.56,26.56,0,0,0,4.82-2.68,39.34,39.34,0,0,1,7.77-4.14,14.85,14.85,0,0,1,4.71-1.27c2-.11,3.94,0,5.9,0,.37,0,4.29,1.29,4.71,1.27,1.07,0,1,.66.9,1.27-.4,1.91-.81,3.81-1.35,5.67-.26.9-1.33,1.17-2.44.75a12.58,12.58,0,0,0-4.47-1.12c-3.91,0-7.12,1.68-10.26,3.77a34.13,34.13,0,0,1-8.32,4.45,20.17,20.17,0,0,1-15.7-1.27,86,86,0,0,1-7.92-4.62c-3.62-2.3-5.92-2.41-10.28-1.76-3.15.48-5.57,2.1-8,3.71a35.69,35.69,0,0,1-7.55,4,19.11,19.11,0,0,1-10.55.51c-4.28-.9-7.62-3.38-11.2-5.47-3.27-1.92-6.57-3.41-10.46-3.28a12.36,12.36,0,0,0-3.8,1.12c-1.28.45-1.45.37-1.85-1s-1.4-2.58-1.25-4c.08-.77-.93-1.34-.4-1.87a4.71,4.71,0,0,1,2.36-1.35C69.72,100.13,71.75,99.26,73.38,99.71Z"/>
    <path class="a" d="M75.53,118.12c2.55-.43,5.24.6,7.87,2A97.79,97.79,0,0,1,91.88,125a9.33,9.33,0,0,0,5.18,1.69,10,10,0,0,1,1.64,0c2.32.41,4.31-.51,6.22-1.61,3.09-1.77,6-3.82,9.27-5.3a14.59,14.59,0,0,1,6.21-1.63c1.31,0,2.62,0,3.93,0a19,19,0,0,1,11.61,3.66c2.42,1.65,5.19,2.76,7.72,4.26,1.11.66,2.22.47,3.35.64,3.94.59,7.1-1.29,10.08-3.34a36.6,36.6,0,0,1,10.39-5c2.29-.67,4.75-.15,7.13-.2.75,0,.39.35.16.75-.4.7-.46,1.68-1,2.19-1.1,1-1.76,2.38-2.76,3.46a8.92,8.92,0,0,1-3.57,2.44,37.09,37.09,0,0,0-7.75,4.25,19.1,19.1,0,0,1-8.44,3.41c-1.54.18-3.17.84-4.64.46-1.89-.49-4-.4-5.67-1.29-2.07-1.07-4.3-1.84-6.19-3.27a23,23,0,0,0-8.1-4.16,13.31,13.31,0,0,0-8.09.27c-3.5,1.27-6.42,3.53-9.53,5.46a19,19,0,0,1-6.24,2.28c-1.3.27-2.59,1-4,.77a27.37,27.37,0,0,1-8.06-1.9,56.65,56.65,0,0,1-8.74-5,5.38,5.38,0,0,0-1.61-.83c-4-.94-6-4.09-8.12-7-.46-.63-1.51-1.54-1.3-1.93.42-.8,1.56-.22,2.39-.33A17.32,17.32,0,0,1,75.53,118.12Z"/>
    <path class="a" d="M147.84,98.44a19.2,19.2,0,0,1-12.25-3.71c-1.67-1.14-3.48-2.12-5.19-3.26a14.37,14.37,0,0,0-3.94-1.54c-4.51-1.29-8.33.34-12.11,2.68-3.35,2.08-6.65,4.31-10.53,5.45a6.63,6.63,0,0,1-1.8.37c-1.74,0-3.49,0-5.24,0-3.66.07-6.79-1.39-9.8-3.25-.18-.12-.28-.36-.47-.45-.81-.41-1.64-.78-2.47-1.17.91-.37,1.82-.76,2.7-1.13,4.06-1.68,8.38-2.43,12.51-3.83C104,87,109,85.69,113.8,84.21a24,24,0,0,1,6.92-1.52c1.46,0,2.92-1.57,4.38,0,1.61-.26,3,.63,4.58.84,2.31.31,4.44,1.4,6.77,1.85s4.47,1.36,6.7,2c3,.91,6,2,9,2.71,2.88.7,5.53,2.16,8.52,2.41a1.12,1.12,0,0,1,.57.2,1.7,1.7,0,0,1,.66.7c.05.16-.24.53-.46.67a42,42,0,0,1-9,4.25C151,98.83,149.37,98.44,147.84,98.44Z"/>
    <path class="a" d="M123.19,135.82c3.83,0,6.85,1.51,9.7,3.37s5.27,3.87,8.57,4.62a1.44,1.44,0,0,1,.84.91c.07.23-.54.18-.79.32a52.16,52.16,0,0,1-7.66,3.64c-.58.2-.87.28-1.38-.08a36,36,0,0,1-3.35-2.14c-1.35-1.19-3.08-1.57-4.54-2.49-1.15-.73-2.23-.2-3.22.4a68.58,68.58,0,0,0-6.18,4,2.44,2.44,0,0,1-2.66.48c-2.33-1.51-5.09-2-7.44-3.41-.27-.16-.62-.43-.66-.69s.39-.29.66-.4a53.06,53.06,0,0,0,11.62-6.73,7.4,7.4,0,0,1,2.81-1.09C120.82,136.27,122,135.32,123.19,135.82Z"/>
    <path class="a" d="M152.12,27.56a2.15,2.15,0,0,1-.53-1A1.73,1.73,0,0,0,150,25c-1-.18-1.27.67-1.83,1.12-.25.2-.43.52-.71.67a1.11,1.11,0,0,1-.86.11c-.51-.27,0-.47.14-.67.48-.69.14-1.46.23-2.19a1.35,1.35,0,0,0-1.21-1.59c-.82,0-1.34-.53-2-.7-.29-.08-.62-.05-.58-.44,0-.1.35-.16.53-.24a3.88,3.88,0,0,0,.56-.23c2.44-1.3,2.56-1.62,1.39-4-.17-.36-.73-.51-.63-1,.05-.27.13-.79.47-.4.54.64,1.21.3,1.79.47,2.17.66,2.13.67,3.19-1.17a2.76,2.76,0,0,0,.49-1.12c0-.36.6-.3.58,0-.06.66.52.91.67,1.38.22.69-.4,1.85.34,2.07a3.06,3.06,0,0,0,3.05-.28.92.92,0,0,1,.55-.23.76.76,0,0,1,.55.22c.11.14.19.47.11.58-.47.58-1,1.11-1.49,1.68-.74.88-.63,1.35.37,2.1a15.74,15.74,0,0,1,1.43,1.28c.51.49.24.66-.31.68a1.82,1.82,0,0,1-.33,0c-1,0-1.74.6-2.61.84s-.25,1.74-.32,2.68C153.49,27.07,153.59,27.64,152.12,27.56Z"/>
    <path class="a" d="M141.06,62c-.83-.87,1.17-1.51.18-2.48-.77-.75-1.65-.26-2.43-.5-.45-.15-.73-.67-1.37-.68-.36,0-.22-.59.08-.57,1.06.07,1.24-1.17,2.07-1.33,1.49-.29.86-1.18.53-1.89-.21-.47-.94-.8-1-1.21,0-.59-.83-.91-.55-1.28.42-.58.91-.13,1.32.27s1.22-.09,1.78.45c.81.77,1.18.53,1.38-.62.14-.74.83-1.38,1.24-2.09a5.76,5.76,0,0,0,.33-.85.83.83,0,0,1,.34.82.68.68,0,0,0,.12.28l1.65,2.83c.95-.62,2.21-.43,3.11-1.23a.84.84,0,0,1,.83.11c.31.34-.23.43-.35.67s-.17.14-.22.23c-2,3.32-1.66,3.08,1,4.73.31.19,1,0,.94.46s-.77.15-1.15.29c-.76.28-1.41.9-2.35.66-.62-.16-1,.06-1,.83.07,1,.06,1.93.16,2.88,0,.29.85.54.07.84-.38.14-.82.05-.89-.59-.12-1.17-1.67-.7-2-1.72-.18-.5-.44.06-.68.1-1,.19-1.58,1-2.27,1.63-.21.2-.51.52-.68.47-.4-.11-.21-.54-.24-.85S141.06,62.25,141.06,62Z"/>
    <path class="a" d="M172.55,31.71c0,.36.09.65,0,.79-.34.42-.76.77-1.13,1.17-.9,1-.88,1,.39,2,.42.35.75.79,1.17,1.14a.77.77,0,0,1,.22.87c-.1.33-.45.38-.79.38-.76,0-1.52,0-2.28,0s-.94.36-.84,1a1.14,1.14,0,0,1-.46,1.13c-.55.46.19,1.6-.47,1.67s-.87-.9-1.19-1.56c-.56-1.13-1.12-1-2.66-.48-.94.3-1.7,1.64-2.18,1.3-1-.7.22-1.63.39-2.49a2.07,2.07,0,0,0-1.65-2.5,6.23,6.23,0,0,0-1.3,0c-.3,0-.82.14-.83-.23s.37-.72.69-.9c.6-.35,1.31-.52,1.93-.85,1.17-.62,1.11-.87.57-2.41-.18-.52-.59-.85-.7-1.34a1,1,0,0,1,.1-.6.62.62,0,0,1,.85-.2c.53.74,1.45.79,2.14,1.22.41.25,1.56.5,1.54-.89,0-.38.64-.72.67-1.35a1.23,1.23,0,0,1,.87-.87c.52,0,.31.61.38,1a8.87,8.87,0,0,0,.87,2.56c.45.75,1.8.13,2.74.3C171.89,31.61,172.41,31.18,172.55,31.71Z"/>
    <path class="a" d="M137.8,36.13a8.12,8.12,0,0,1-1.23-.18c-1.29-.51-1.89-.11-2.08,1.09-.13.79.48,2-.45,2.29-1.25.38-1.27-1.08-1.77-1.8a1.54,1.54,0,0,0-2.21-.56c-.18.1-.38.46-.46.43-.88-.35-1.33,1.29-1.94.61-.42-.48.38-1.32.68-2,.52-1.13.36-2.07-.68-2.38-.7-.21-1.13-.95-2-.84-.28,0-.44-.41-.38-.75s.28-.44.63-.55c3.44-1.1,3-.44,2-4.2a1,1,0,0,1,.15-.86c.32-.25.43.36.67.36.69,0,1.09.54,1.64.79,1.35.63,1.33.64,2.4-.65.27-.34.62-.61.91-.93.68-.76.8.2,1.15.38.14.08.19.35.23.55.17.83-.46,2,.28,2.44s1.67.14,2.53.17c.4,0,.92-.14,1.07.37,0,.15-.42.45-.65.68l-.24.23c-.53.54-1.42,1-1.5,1.63s.88,1.06,1.38,1.6a1.42,1.42,0,0,1,.45.8c.05.36.57.75.49,1C138.79,36.36,138.2,36,137.8,36.13Z"/>
    <path class="a" d="M148.93,45.82c0-.1,0-.24,0-.32,1.57-2.63-.28-3.71-2.15-4.79a3.73,3.73,0,0,1-.46-.35c.18-.1.35-.28.53-.29.65,0,1.3,0,1.95,0,2.19,0,2.43-.26,2.74-2.72.06-.4-.14-1.1.29-1.1s1,.72,1,1a3.3,3.3,0,0,0,.95,2.53c.56.69,1.82.16,2.77.25.31,0,.75-.09.83.27,0,.18-.34.46-.53.68a1.25,1.25,0,0,1-.23.23c-1.37,1.15-2.57,2.31-1.13,4.23a.94.94,0,0,1-.1.9c-.53.54-.54-.44-.91-.4a1.1,1.1,0,0,1-1.1-.5c-.74-1-1.51-1.18-2.25,0-.34.53-.91.45-1.36.68-.22.11-.28.69-.68.29C149,46.29,149,46,148.93,45.82Z"/>
    <path class="a" d="M172.93,30.93c.08.07.21.18.2.21a.88.88,0,0,1-.3.38c-.27.13-.41,0-.27-.28C172.62,31.11,172.8,31,172.93,30.93Z"/>
  </g>
</svg>
