<svg xmlns="http://www.w3.org/2000/svg" viewBox="0 0 69.75 69.75">
  <defs>
    <style>
      .a {
        opacity: 0.5;
      }

      .b {
        fill: none;
        stroke: gray;
        stroke-linecap: round;
        stroke-miterlimit: 10;
        stroke-width: 2.75px;
      }
    </style>
  </defs>
  <title>back</title>
  <g>
    <g class="a">
      <path class="b" d="M34.88,2.88A32,32,0,0,1,62.17,51.56l1.09,1.1A33.5,33.5,0,0,0,17.09,6.49l1.1,1.09A31.81,31.81,0,0,1,34.88,2.88Z"/>
      <path class="b" d="M34.88,66.88A32,32,0,0,1,7.58,18.19l-1.09-1.1A33.49,33.49,0,0,0,52.66,63.26l-1.1-1.09A31.84,31.84,0,0,1,34.88,66.88Z"/>
    </g>
    <g>
      <polyline class="b" points="32.43 46.28 21.14 34.99 32.43 23.7"/>
      <line class="b" x1="22.31" y1="34.99" x2="48.61" y2="34.99"/>
    </g>
  </g>
</svg>
